<!-- Generator: Adobe Illustrator 19.1.0, SVG Export Plug-In  -->
<svg version="1.1"
	 xmlns="http://www.w3.org/2000/svg" xmlns:xlink="http://www.w3.org/1999/xlink" xmlns:a="http://ns.adobe.com/AdobeSVGViewerExtensions/3.0/"
	 x="0px" y="0px" width="60px" height="10px" viewBox="0 0 60 10" enable-background="new 0 0 60 10" xml:space="preserve">
<defs>
</defs>
<g id="XMLID_4_">
	<path id="XMLID_17_" fill="#414042" d="M0,0.6h3.2c0.5,0,0.9,0,1.3,0.1C4.9,0.9,5.2,1,5.5,1.2c0.3,0.2,0.6,0.5,0.7,0.8
		c0.2,0.3,0.3,0.7,0.3,1.2c0,0.6-0.2,1.2-0.5,1.6C5.7,5.3,5.3,5.6,4.8,5.7l2.1,3.7H4.6L2.8,6H2v3.4H0V0.6z M3,4.5c0.2,0,0.4,0,0.6,0
		c0.2,0,0.4-0.1,0.5-0.2c0.1-0.1,0.3-0.2,0.4-0.4c0.1-0.2,0.1-0.4,0.1-0.6c0-0.2,0-0.4-0.1-0.5C4.3,2.7,4.2,2.6,4.1,2.5
		C4,2.4,3.8,2.3,3.6,2.3c-0.2,0-0.3,0-0.5,0H2v2.3H3z"/>
	<path id="XMLID_15_" fill="#414042" d="M8.3,0.7h6.1v1.6h-4.1v1.8h3.9v1.6h-3.9v2.1h4.3v1.7H8.3V0.7z"/>
	<path id="XMLID_12_" fill="#414042" d="M19.3,0.7h1.9L25,9.4h-2.2L22,7.5h-3.6l-0.8,1.9h-2.1L19.3,0.7z M21.4,6l-1.2-3L19,6H21.4z"
		/>
	<path id="XMLID_10_" fill="#414042" d="M31.8,3.1c-0.2-0.3-0.5-0.5-0.8-0.7c-0.3-0.2-0.7-0.2-1.1-0.2c-0.4,0-0.7,0.1-1.1,0.2
		c-0.3,0.1-0.6,0.3-0.8,0.6c-0.2,0.2-0.4,0.5-0.5,0.9c-0.1,0.3-0.2,0.7-0.2,1.2c0,0.4,0.1,0.8,0.2,1.1c0.1,0.3,0.3,0.6,0.5,0.9
		c0.2,0.2,0.5,0.4,0.8,0.6c0.3,0.1,0.7,0.2,1.1,0.2c0.8,0,1.5-0.3,2-1L33.5,8c-0.4,0.5-0.8,0.9-1.4,1.2c-0.6,0.3-1.3,0.5-2.2,0.5
		c-0.7,0-1.4-0.1-1.9-0.3c-0.6-0.2-1.1-0.5-1.5-0.9c-0.4-0.4-0.7-0.9-0.9-1.5c-0.2-0.6-0.3-1.2-0.3-1.9c0-0.7,0.1-1.3,0.4-1.9
		c0.2-0.6,0.6-1,1-1.4C27,1.3,27.5,1,28.1,0.8c0.6-0.2,1.2-0.3,1.9-0.3c0.7,0,1.3,0.1,1.9,0.4c0.6,0.2,1.1,0.6,1.5,1.1L31.8,3.1z"/>
	<path id="XMLID_8_" fill="#414042" d="M36.6,2.3H34V0.7h7.1v1.7h-2.6v7.1h-2V2.3z"/>
	<path id="XMLID_5_" fill="#414042" d="M53.1,0.6h3.2c0.5,0,0.9,0,1.3,0.1s0.8,0.2,1.1,0.5c0.3,0.2,0.6,0.5,0.7,0.8
		c0.2,0.3,0.3,0.7,0.3,1.2c0,0.6-0.2,1.2-0.5,1.6c-0.3,0.4-0.7,0.7-1.2,0.9L60,9.4h-2.3L55.9,6h-0.9v3.4h-2V0.6z M56.1,4.5
		c0.2,0,0.4,0,0.6,0c0.2,0,0.4-0.1,0.5-0.2c0.1-0.1,0.3-0.2,0.4-0.4c0.1-0.2,0.1-0.4,0.1-0.6c0-0.2,0-0.4-0.1-0.5
		c-0.1-0.1-0.2-0.2-0.3-0.3c-0.1-0.1-0.3-0.1-0.5-0.2c-0.2,0-0.3,0-0.5,0h-1.1v2.3H56.1z"/>
</g>
<path id="XMLID_1_" fill="#4EBBC5" d="M46.6,2.3c1.5,0,2.7,1.2,2.7,2.7s-1.2,2.7-2.7,2.7S43.8,6.5,43.8,5S45.1,2.3,46.6,2.3 M46.6,0
	c-2.8,0-5,2.2-5,5s2.2,5,5,5s5-2.2,5-5S49.3,0,46.6,0L46.6,0z"/>
</svg>
